<svg xmlns="http://www.w3.org/2000/svg" width="215" height="75" viewBox="0 0 215 75" fill="none"><g clip-path="url(#clip0_11_9407)"><path d="M143.454 13.8842H136.196V17.9405H143.454V13.8842Z" fill="white"></path><path fill-rule="evenodd" clip-rule="evenodd" d="M125.754 21.629C125.587 19.2792 124.688 18.2407 122.727 18.2407C119.867 18.2407 118.913 20.9183 118.913 24.0309C118.913 27.1987 119.867 29.8762 122.727 29.8762C124.914 29.8762 125.977 28.7274 126.077 26.3255H133.534C133.479 28.0197 133.308 29.6557 131.965 31.0772C130.003 33.0991 126.583 34.0274 122.882 34.0274C114.137 34.0274 111.277 30.0938 111.277 24.0309C111.277 19.5519 113.129 14.0895 122.882 14.0895C127.198 14.0895 130.226 14.9657 131.74 16.5404C132.86 17.6862 133.199 18.832 133.199 21.6198L125.754 21.629Z" fill="white"></path><path d="M143.357 20.373H136.293V33.5342H143.357V20.373Z" fill="white"></path><path fill-rule="evenodd" clip-rule="evenodd" d="M154.343 15.6734V20.3729H157.931V24.0309H154.343V27.8542C154.343 29.4933 155.129 30.204 156.698 30.204C157.137 30.1982 157.573 30.1238 157.989 29.9834V33.5342C156.398 33.8279 154.785 33.9928 153.168 34.0274C148.739 34.0274 147.338 32.7162 147.338 28.6201V24.0247H145.376V20.3729H147.28V18.0232L154.343 15.6734Z" fill="white"></path><path fill-rule="evenodd" clip-rule="evenodd" d="M162.808 38.5585L165.388 33.5342L158.437 20.3607H166.286L169.028 27.407L171.769 20.3607H178.775L174.358 28.8928C171.836 33.7517 170.657 36.3741 169.872 38.5585H162.808Z" fill="white"></path><path fill-rule="evenodd" clip-rule="evenodd" d="M56.8553 17.6402C58.7621 16.8774 60.4434 16.1084 62.2923 14.693H68.6888V33.1512H61.7898V20.7007C59.883 22.064 58.8169 22.6124 56.8553 23.1516V17.6402Z" fill="white"></path><path fill-rule="evenodd" clip-rule="evenodd" d="M82.6421 23.7582C82.6272 23.5067 82.5471 23.2635 82.4098 23.0528C82.2725 22.8422 82.0827 22.6713 81.8593 22.5573C81.3649 22.3405 80.8257 22.2469 80.2876 22.2846C79.1667 22.2846 78.2712 22.7197 78.2712 23.4304C78.2712 24.1963 78.5514 24.3495 81.6217 24.904L84.089 25.2869C87.8446 25.8997 89.7513 26.7085 89.7513 29.3278C89.7513 32.2781 87.0587 33.6444 80.8359 33.6444C73.2211 33.6444 71.4758 32.1678 71.3082 29.3278H77.8235C77.8462 29.5709 77.9236 29.8055 78.0497 30.0141C78.1758 30.2227 78.3474 30.3997 78.5515 30.5318C78.9444 30.8045 79.5596 30.8596 80.4003 30.8596C81.972 30.8596 82.8127 30.4767 82.8127 29.7108C82.8127 28.8377 82.3619 28.6201 79.5597 28.179L74.7958 27.361C72.7215 26.9811 71.6555 25.7342 71.6555 24.2024C71.6555 20.8141 74.8506 19.5029 80.3455 19.5029C85.7277 19.5029 89.1452 20.2688 89.1452 23.7643L82.6421 23.7582Z" fill="white"></path><path fill-rule="evenodd" clip-rule="evenodd" d="M100.135 15.2935V19.99H103.723V23.6479H100.135V27.4713C100.135 29.1103 100.863 29.8211 102.489 29.8211C102.923 29.81 103.355 29.7546 103.778 29.6556V33.1512C102.189 33.4663 100.575 33.6314 98.9562 33.6445C94.4726 33.6445 93.1263 32.3332 93.1263 28.2372V23.6418H91.1647V19.99H93.0714V17.6402L100.135 15.2935Z" fill="white"></path><path fill-rule="evenodd" clip-rule="evenodd" d="M203.285 52.4856C203.285 50.7393 204.126 49.6456 205.695 49.6456C207.321 49.6456 208.049 50.7945 208.049 52.4856H203.285ZM215 55.0529V54.3452C215 48.4447 210.291 46.8608 205.695 46.8608C200.313 46.8608 196.335 48.9379 196.335 54.0695C196.335 59.0968 200.2 61.1157 205.862 61.1157C212.143 61.1157 214.61 58.9712 214.832 56.8022H207.882C207.656 57.6202 207.154 58.334 205.75 58.334C204.123 58.334 203.282 57.2954 203.282 55.0559L215 55.0529ZM181.537 60.6256L175.872 47.354H183.328L186.524 55.9811L189.606 47.354H196.444L190.782 60.6256H181.537ZM174.532 47.354V60.6256H167.407V47.354H174.532ZM174.532 41.5638V45.3872H167.407V41.5638H174.532ZM153.454 52.2681C153.454 50.2461 153.454 48.4998 153.286 47.3663H160.125L160.292 50.7516H160.35C161.303 47.5287 162.985 46.9833 165.9 46.8731V52.0077H164.553C161.526 52.0077 160.572 53.4812 160.572 55.9413V60.6378H153.448L153.454 52.2681ZM136.701 45.8774H138.718C142.084 45.8774 144.045 47.5164 144.045 51.0671C144.045 54.6699 142.084 56.2538 138.718 56.2538H136.701V45.8774ZM129.358 60.6256H139.951C145.334 60.6256 147.295 59.8597 149.315 58.0583C150.838 56.747 151.724 54.0174 151.724 51.2295C151.724 48.3895 150.828 46.098 149.592 44.6765C147.179 42.054 143.875 41.5638 138.715 41.5638H129.342L129.358 60.6256ZM98.018 54.3452C98.018 51.6124 97.0677 49.6456 95.1031 48.3895C93.5344 47.354 91.3474 46.8577 88.6579 46.8577C85.8556 46.8577 83.6108 47.4031 81.9873 48.4968C80.2481 49.7528 79.3526 51.6094 79.3526 54.0664C79.3526 56.4713 80.1933 58.2727 81.9873 59.4736C83.6118 60.5684 85.9094 61.1147 88.8802 61.1127C91.7962 61.1127 94.039 60.6756 95.6087 59.8015C96.2559 59.4664 96.8137 58.9799 97.2352 58.383C97.5032 58.0742 97.6776 57.6947 97.7378 57.2893L97.9084 56.744H90.9027L90.79 57.0166C90.5098 57.8898 89.8367 58.2727 88.7736 58.2727C87.933 58.2727 87.3146 58.0552 86.9217 57.5099C86.5288 56.9646 86.3125 56.1435 86.3125 55.059H98.0272L98.018 54.3452ZM110.071 51.0671H108.039V47.354H110.056V46.6984C110.049 45.9064 110.144 45.1168 110.336 44.3487C110.512 43.6701 110.86 43.0493 111.347 42.5473C112.355 41.5638 114.149 41.0155 116.671 41.0155C117.971 41.0011 119.268 41.1284 120.54 41.3953L120.878 41.4505V44.8909L120.427 44.8358C120.093 44.7894 119.756 44.7719 119.419 44.7837C118.691 44.7837 118.185 44.8909 117.792 45.2187C117.587 45.4028 117.425 45.6312 117.32 45.8869C117.214 46.1426 117.167 46.419 117.183 46.6954V47.351H120.658V51.0641H117.177V60.6225H110.056L110.071 51.0671ZM64.6468 54.8384C64.7047 55.7575 64.9301 56.3702 65.32 56.8053C65.5949 57.0692 65.921 57.2732 66.2779 57.4045C66.6349 57.5358 67.0149 57.5915 67.3943 57.5681C68.1248 57.6116 68.8552 57.4814 69.5264 57.1882C69.8309 57.0684 70.0911 56.857 70.2716 56.5828C70.452 56.3086 70.5439 55.9851 70.5346 55.6564C70.5271 55.3442 70.4298 55.0409 70.2544 54.7833C69.7874 54.4262 69.254 54.1668 68.6857 54.0204C68.1801 53.855 67.2267 53.5823 65.8804 53.2545C63.9767 52.7644 62.5756 52.3814 61.677 52.0536C60.218 51.5604 59.155 51.015 58.5367 50.4146C58.1024 49.9671 57.7762 49.4252 57.5833 48.8307C57.4001 48.2658 57.3056 47.6756 57.3031 47.0814C57.3031 45.0073 58.2169 43.4786 59.9378 42.486C61.6588 41.4934 64.3118 41.0124 67.8572 41.0124C71.4027 41.0124 73.9095 41.5577 75.4721 42.6484C76.1824 43.1417 76.7441 43.8221 77.0955 44.6152C77.3938 45.3066 77.5652 46.0467 77.6012 46.7995V47.2376H70.361V46.9098C70.2483 46.0918 69.9681 45.4883 69.4472 45.1084C68.9995 44.7806 68.2715 44.6152 67.3151 44.6152C66.5871 44.6152 65.9688 44.7255 65.5758 45.0533C65.3863 45.177 65.2311 45.3469 65.1245 45.5473C65.018 45.7476 64.9637 45.9719 64.9666 46.1991C64.9541 46.3474 64.9728 46.4966 65.0215 46.6372C65.083 46.8006 65.1785 46.9489 65.3017 47.0722C65.5271 47.2928 66.0327 47.5103 66.8247 47.7829C67.3303 47.9484 68.171 48.1659 69.4594 48.4937C71.3661 48.9839 72.7673 49.4128 73.6658 49.6946C75.1888 50.24 76.2427 50.7883 76.8031 51.3337C77.1891 51.7369 77.5107 52.1978 77.7565 52.7C78.0608 53.3871 78.2136 54.1323 78.2043 54.8844C78.2445 55.8022 78.0309 56.7133 77.5873 57.5164C77.1437 58.3196 76.4874 58.9833 75.6914 59.4338C73.8425 60.5796 71.0402 61.1249 67.1628 61.1249C64.921 61.1249 63.069 60.9626 61.6131 60.5796C60.3216 60.2518 59.3134 59.8137 58.6403 59.1581C58.0221 58.5921 57.5915 57.8489 57.4066 57.0289C57.2284 56.3279 57.1343 55.6079 57.1264 54.8844L57.0716 54.4463H64.5829L64.6468 54.8384ZM106.413 41.5669V60.6286H99.2973V41.5638L106.413 41.5669ZM86.2882 52.4886C86.2861 51.7524 86.4978 51.0315 86.8973 50.4146C87.114 50.1669 87.382 49.9699 87.6825 49.8376C87.983 49.7053 88.3086 49.6408 88.6366 49.6487C88.9797 49.6265 89.3229 49.6898 89.6359 49.8331C89.9488 49.9763 90.2218 50.195 90.4306 50.4697C90.8236 50.9048 90.9911 51.6155 91.0398 52.4886H86.2882Z" fill="white"></path><path fill-rule="evenodd" clip-rule="evenodd" d="M40.9434 44.8634V40.8807L35.9115 37.5015L32.7681 38.4788V35.2559L29.3353 32.9582V30.6575L26.8773 29.046V16.4485L25.4457 15.2996V12.1349L19.8442 6.78589L14.2397 12.4811V15.0117L12.9239 16.1636V22.3643L10.2922 20.5261L5.31819 25.4279V23.121L0.0578727 18.8075L0 61.658L44.3761 51.1897V46.7046L40.9434 44.8634ZM16.5272 48.0985V50.4575H16.9262V48.0985H16.5272ZM16.5272 44.4743L16.9262 44.3609V41.9438L16.5272 42.0602V44.4743ZM16.9262 38.7821L16.5272 39.0119V41.2545L16.9262 41.138V38.7821ZM16.5272 47.5808L16.9262 47.5226V44.9369L16.5272 44.9921V47.5808ZM15.4977 47.6972L15.8967 47.639V45.1667L15.4977 45.28V47.6972ZM15.4977 44.7041L15.8967 44.5907V42.2777L15.4977 42.391V44.7041ZM15.8967 39.2141L15.4977 39.4439V41.6282L15.8967 41.4567V39.2141ZM15.4977 48.1874V50.4299H15.8967V48.1292L15.4977 48.1874ZM14.526 48.2425V50.4299H14.8672V48.2425H14.526ZM14.526 42.728V44.9155L14.8672 44.799V42.5565L14.526 42.728ZM14.8672 39.738L14.526 39.9095V41.9805L14.8672 41.809V39.738ZM14.526 45.4945V47.737H14.8672V45.3811L14.526 45.4945ZM13.4965 48.3712V50.4422H13.8377V48.2977L13.4965 48.3712ZM13.4965 45.7242V47.8535H13.8377V45.6109L13.4965 45.7242ZM13.4965 43.0222V45.1514L13.8377 45.0349V42.9057L13.4965 43.0222ZM13.8377 40.2036L13.4965 40.4334V42.3328L13.8377 42.2164V40.2036ZM22.1866 33.4637L21.6718 33.6383V35.6511L22.1866 35.5347V33.4637ZM23.1491 33.1298L22.6922 33.3013V35.4459L23.1491 35.2712V33.1298ZM24.1786 32.8418L23.7217 33.0134V35.1426L24.1786 35.0262V32.8418ZM23.1491 30.2531L22.6922 30.4246V32.5691L23.1491 32.4558V30.2531ZM24.1786 29.8517L23.7217 30.0233V32.1678L24.1786 32.0514V29.8517ZM23.1491 36.0617L22.6922 36.1781V38.2491L23.1491 38.1326V36.0617ZM24.1786 35.7737L23.7217 35.8901V38.0193L24.1786 37.9611V35.7737ZM22.1774 30.6575L21.6627 30.829V32.9735L22.1774 32.8571V30.6575ZM18.4705 23.7552V26.2857L18.8848 26.2275V23.6388L18.4705 23.7552ZM18.8848 20.9367L18.4857 21.05V23.1945L18.8848 23.121V20.9367ZM18.8848 17.6586L18.4857 17.8302V20.4771L18.8848 20.3607V17.6586ZM18.8848 13.7464L18.4705 14.0926V17.0826L18.8848 16.9111V13.7464ZM17.5141 14.7819L17.1547 15.0117V17.7138L17.4989 17.5422L17.5141 14.7819ZM17.1547 24.0431V26.3991L17.4989 26.347V23.9267L17.1547 24.0431ZM17.4989 21.3962L17.1547 21.5096V23.4672L17.4989 23.409V21.3962ZM17.4989 18.2897L17.1547 18.4613V20.9367L17.4989 20.8325V18.2897ZM16.183 24.2025L15.784 24.2607V24.374L16.183 24.8336V24.2025ZM16.183 21.8435L15.784 21.9599V23.7429L16.183 23.6847V21.8435ZM16.183 18.9116L15.784 19.0832V21.3839L16.183 21.2124V18.9116ZM16.183 15.7469L15.784 15.9767V18.3939L16.183 18.1641V15.7469ZM14.8672 22.2601L14.4682 22.4317V23.409L14.8672 23.697V22.2601ZM14.8672 19.555L14.4682 19.7265V21.7975L14.8672 21.6842V19.555ZM14.8672 16.9662L14.4682 17.1562V19.0525L14.8672 18.8228V16.9662ZM17.6664 56.3703L12.866 57.2281V39.9157L17.6664 37.4433V56.3703ZM44.3731 52.2283L0 63.3246L22.1317 75L44.3731 52.2283ZM35.3937 41.184L34.9368 41.3004V42.5075L35.3937 42.391V41.184ZM34.5378 39.3458L34.0779 39.4622V40.7275L34.5378 40.6111V39.3458ZM35.3937 39.1161L34.9368 39.2907V40.556L35.3937 40.4395V39.1161ZM21.6687 38.197V36.4569L22.1287 36.3404C22.1287 36.3404 22.1835 38.1786 22.1835 38.3532L23.3288 38.8128L23.7278 39.6767V38.8128L24.1847 38.6994V40.7122L24.7573 41.9193V28.9296L20.9865 30.3695V37.9029C21.2205 37.9847 21.4494 38.0809 21.6718 38.1909L21.6687 38.197ZM20.9286 23.9849V26.5155H21.3215V24.0431L20.9286 23.9849ZM21.3215 21.338L20.9194 21.2246V23.3508L21.3215 23.4672V21.338ZM21.3215 18.1181L20.9194 17.8884V20.5261L21.3215 20.6487V18.1181ZM21.3215 14.3806L20.9194 14.0344V17.0826L21.3215 17.2542V14.3806ZM22.6374 15.2996L22.2932 15.0699V17.7138L22.6374 17.8884V15.2996ZM22.6374 21.7975L22.2932 21.6842V23.697L22.6374 23.8103V21.7975ZM22.6374 18.6941L22.2932 18.5195V20.9367L22.6374 21.1082V18.6941ZM23.609 19.0954V21.3962L24.008 21.5096V19.267L23.609 19.0954ZM24.008 16.2769L23.609 16.0472V18.3479L24.008 18.5195V16.2769ZM25.3239 17.4288L24.9218 17.2542V18.9943L25.3239 19.169V17.4288ZM31.7203 35.3141L32.1772 35.5439V37.4433L31.7203 37.2136V35.3141ZM30.6329 34.683L31.1477 34.971V36.9838L30.6329 36.8092V34.683ZM27.7911 30.9424L28.248 31.1752V33.0869L27.7911 32.9153V30.9424ZM26.7037 30.4246L27.1636 30.7126V32.6702L26.7037 32.4956V30.4246ZM25.6772 29.9651L26.1919 30.2531V32.2659L25.6772 32.0943V29.9651ZM37.9706 40.0321L37.4558 39.7441V40.8378L37.9706 41.1227V40.0321ZM38.8843 40.4916L38.3696 40.2036V41.2973L38.8843 41.5853V40.4916ZM36.9989 39.5205L36.5512 39.2141V40.3078L37.008 40.6509L36.9989 39.5205ZM18.5802 44.8052V46.7046H18.9213V44.9216L18.5802 44.8052ZM18.9213 41.9867L18.5802 41.8702V44.2292L18.9213 44.3456V41.9867ZM18.9213 38.9966L18.5802 38.7668V41.1809L18.9213 41.2973V38.9966ZM19.6127 45.0349V46.7046H19.9569V45.1514L19.6127 45.0349ZM19.9569 42.3328L19.6127 42.2164V44.5172L19.9569 44.5754V42.3328ZM19.9569 39.4561L19.6127 39.2141V41.5149L19.9569 41.6282V39.4561ZM20.5874 42.5626V44.747L20.9865 44.8634V42.676L20.5874 42.5626ZM20.9865 39.9157L20.5874 39.7441V41.8702L20.9865 41.9867V39.9157ZM21.9581 40.4395L21.6261 40.2036V42.2164L21.9672 42.3328L21.9581 40.4395ZM33.2798 57.2893L29.908 58.7262L31.3365 58.9008L34.3825 57.3476L33.2798 57.2893ZM38.0284 55.2766L35.3967 56.3703L36.1978 56.4254L38.4853 55.2766H38.0284ZM39.856 54.5872L40.9434 53.9531L39.7433 54.5321H39.856V54.5872ZM13.661 16.9693V22.833L15.7931 24.3281L19.7376 29.9651V11.9634L13.661 16.9693ZM14.9768 12.9437V14.4388L19.4361 10.7012V8.27173L14.9768 12.9437ZM6.23197 25.9395L10.1917 22.3153V36.6376L6.23197 30.7708V25.9395ZM27.6784 59.7004L22.3602 62.0012L24.4192 62.4056L29.3932 59.875L27.6784 59.7004ZM20.1854 62.9233L13.0975 65.9716L15.2723 67.1204L22.4759 63.4441L20.1854 62.9233ZM33.7398 40.2527C33.9103 40.5406 34.0809 40.942 34.3094 41.4015C34.3822 41.368 34.4608 41.3493 34.5408 41.3464V41.861C34.7693 42.2654 34.9977 42.725 35.2262 43.1294C35.2858 43.1195 35.3434 43.0998 35.3967 43.0712V43.5307C35.6831 43.9902 35.8536 44.3364 35.8536 44.3364V38.2399L33.2798 39.0456V39.3887C33.3319 39.4881 33.3899 39.5843 33.4534 39.6767C33.5421 39.6234 33.6388 39.5851 33.7398 39.5633V40.2527Z" fill="white"></path><path fill-rule="evenodd" clip-rule="evenodd" d="M40.9434 44.8634L44.3761 46.7015V13.0019L43.7456 13.1153C38.9057 13.7801 32.5579 9.11114 29.3353 5.76262L29.2227 5.70748L28.4764 5.17747L27.7911 4.71487C23.2222 1.89942 18.0106 2.22416 13.3229 4.42996L13.2102 4.4851H13.1523C9.30532 5.83921 3.32616 2.42023 0.228445 0.17155L0.115745 0.116405L0 0.058197V19.1536C0.0153488 19.1536 0.0300689 19.1598 0.0409222 19.1707C0.0517754 19.1816 0.0578727 19.1964 0.0578727 19.2118V18.8074L5.31819 23.121V25.4279L10.2922 20.5261L12.9239 22.3643V16.1635L14.2397 15.0116V12.4811L19.8442 6.78586L25.4457 12.1349V15.2996L26.8773 16.4485V29.046L29.3353 30.6574V32.9582L32.7681 35.2559V38.4788L35.9115 37.5015L40.9434 40.8929V44.8634Z" fill="#B8155B"></path><path fill-rule="evenodd" clip-rule="evenodd" d="M32.762 35.9636V38.4941L35.9085 37.5169L37.2243 38.4359C39.3382 38.3226 41.184 38.2644 41.184 38.2644C41.184 38.2644 36.0791 36.8827 32.762 35.9636ZM26.8743 16.522V20.3209C27.5596 19.7449 33.9073 14.739 33.9073 14.739C33.9073 14.739 29.5029 15.8327 26.8743 16.522ZM7.88898 22.9065C8.57431 22.2172 9.31752 21.5279 9.77441 21.0684C7.2006 20.376 3.07336 19.169 3.07336 19.169C3.07336 19.169 6.34469 21.6995 7.88898 22.9065ZM11.4923 21.3533C12.1776 21.871 12.9209 22.3888 12.9209 22.3888V16.1789C12.9209 16.1789 13.7219 15.4314 14.0631 15.1434C12.1837 13.4186 6.45739 8.24109 6.45739 8.24109L12.3482 17.7873L5.03799 13.8781C5.03799 13.8781 10.2892 19.9747 11.4923 21.3533ZM26.8743 20.3209V29.0613L29.3323 30.6728V32.9735C29.3323 32.9735 31.1051 34.1224 32.0737 34.8117L40.9952 33.3718L30.3009 31.8186L41.3394 28.5405L30.5294 27.9645L40.4256 22.977L28.9881 23.7123L37.9097 18.5378C37.9097 18.5378 27.718 20.2198 26.8743 20.3209Z" fill="#F2BBD9"></path></g><defs><clipPath id="clip0_11_9407"><rect width="215" height="75" fill="white"></rect></clipPath></defs></svg>